<svg id="svg" version="1.1" xmlns="http://www.w3.org/2000/svg" xmlns:xlink="http://www.w3.org/1999/xlink" width="400" height="400" viewBox="0, 0, 400,400"><g id="svgg"><path id="path0" d="M52.241 23.895 C 49.775 24.024,49.310 24.186,47.869 25.420 C 46.982 26.179,45.939 26.800,45.552 26.800 C 45.164 26.800,44.750 26.958,44.630 27.151 C 44.261 27.749,40.785 28.447,36.449 28.794 L 32.298 29.126 30.049 31.343 C 28.263 33.104,27.392 33.651,25.816 34.001 C 23.455 34.525,22.800 34.998,22.800 36.179 C 22.800 37.276,21.232 38.800,20.103 38.800 C 19.243 38.800,17.600 40.506,17.600 41.400 C 17.600 42.395,15.913 43.994,14.379 44.454 C 12.873 44.905,12.800 45.002,12.800 46.574 C 12.800 48.427,12.283 49.310,9.788 51.724 C 7.898 53.552,7.528 54.802,6.977 61.200 C 6.531 66.372,3.952 70.800,1.384 70.800 L 0.000 70.800 0.000 200.200 L 0.000 329.600 1.338 329.600 C 2.701 329.600,4.800 330.990,4.800 331.892 C 4.800 332.148,5.250 333.204,5.800 334.238 C 6.350 335.273,6.801 336.677,6.802 337.360 C 6.804 338.042,7.076 340.397,7.406 342.593 L 8.008 346.585 10.260 348.860 C 12.284 350.906,12.531 351.342,12.708 353.179 C 12.900 355.180,12.944 355.240,14.818 356.046 C 16.435 356.741,16.859 357.166,17.557 358.789 C 18.172 360.218,18.660 360.779,19.467 360.981 C 21.182 361.412,22.800 362.756,22.800 363.751 C 22.800 365.297,23.684 365.991,26.265 366.470 C 28.218 366.833,28.819 367.123,29.156 367.864 C 29.391 368.379,29.826 368.800,30.124 368.800 C 30.421 368.800,30.896 369.231,31.178 369.758 C 31.615 370.575,32.171 370.785,34.945 371.183 C 43.721 372.440,48.473 373.940,49.007 375.621 C 49.385 376.814,55.158 376.855,205.400 376.725 L 350.200 376.600 351.246 375.536 C 353.399 373.345,356.432 372.407,365.263 371.201 C 368.160 370.805,368.759 370.599,368.933 369.934 C 369.047 369.498,369.476 369.053,369.886 368.946 C 370.296 368.838,370.804 368.357,371.016 367.875 C 371.311 367.202,372.011 366.873,374.052 366.450 C 376.605 365.920,376.720 365.844,377.148 364.415 C 377.687 362.615,378.551 361.783,380.624 361.065 C 381.985 360.594,382.262 360.285,382.694 358.761 C 383.135 357.203,383.419 356.900,385.162 356.129 C 387.052 355.293,387.149 355.170,387.585 353.071 C 387.966 351.237,388.399 350.518,390.262 348.625 L 392.483 346.367 392.834 342.084 C 393.027 339.728,393.355 337.260,393.562 336.600 C 395.241 331.266,396.688 329.200,398.746 329.200 L 400.000 329.200 400.000 200.000 L 400.000 70.800 398.400 70.800 C 397.520 70.800,396.800 70.654,396.800 70.475 C 396.800 70.297,396.443 69.767,396.006 69.299 C 394.487 67.668,392.838 61.806,392.814 57.950 C 392.794 54.765,392.395 53.124,391.589 52.913 C 391.210 52.814,390.666 52.298,390.382 51.766 C 390.098 51.235,389.653 50.800,389.393 50.800 C 388.824 50.800,387.721 48.358,387.374 46.334 C 387.179 45.189,386.897 44.811,386.086 44.607 C 384.331 44.167,382.800 42.838,382.800 41.755 C 382.800 40.479,381.121 38.800,379.845 38.800 C 378.762 38.800,377.433 37.269,376.993 35.514 C 376.789 34.703,376.411 34.421,375.266 34.226 C 373.242 33.879,370.800 32.776,370.800 32.207 C 370.800 31.947,370.365 31.502,369.834 31.218 C 369.302 30.934,368.786 30.390,368.687 30.011 C 368.477 29.209,366.815 28.800,363.770 28.800 C 359.406 28.800,354.692 27.315,351.879 25.054 L 350.318 23.800 202.659 23.775 C 121.447 23.761,53.758 23.815,52.241 23.895 M361.746 41.352 C 363.250 41.980,364.800 43.753,364.800 44.846 C 364.800 45.332,365.177 45.660,365.900 45.805 C 368.891 46.405,370.203 47.082,370.600 48.230 C 371.107 49.696,371.904 50.493,373.370 51.000 C 374.518 51.397,375.195 52.709,375.795 55.700 C 375.943 56.438,376.266 56.800,376.777 56.800 C 377.974 56.800,379.944 58.714,380.410 60.329 C 380.706 61.357,380.799 103.731,380.717 201.000 L 380.600 340.200 379.651 341.465 C 379.045 342.273,378.215 342.821,377.354 342.982 C 376.303 343.179,375.957 343.473,375.781 344.318 C 374.989 348.112,374.708 348.736,373.677 348.995 C 372.518 349.286,370.934 350.818,370.732 351.844 C 370.527 352.888,368.700 354.036,366.848 354.284 C 365.441 354.473,365.077 354.714,364.633 355.755 C 363.602 358.170,362.793 358.703,359.452 359.167 C 355.152 359.766,45.394 359.779,40.929 359.181 C 37.627 358.739,36.311 357.858,35.752 355.714 C 35.515 354.808,35.231 354.661,32.800 354.187 C 31.309 353.896,29.600 352.595,29.600 351.751 C 29.600 350.930,27.852 349.279,26.669 348.982 C 25.384 348.659,24.800 347.728,24.800 346.000 C 24.800 344.150,24.158 343.266,22.603 342.974 C 20.896 342.654,20.150 341.332,19.582 337.621 C 18.727 332.039,19.279 61.676,20.150 59.685 C 20.866 58.045,22.415 56.800,23.737 56.800 C 24.456 56.800,24.800 55.943,24.800 54.149 C 24.800 52.635,26.245 50.800,27.438 50.800 C 28.216 50.800,28.979 49.930,29.768 48.144 C 30.315 46.904,31.616 46.218,33.978 45.922 C 34.684 45.834,35.225 45.278,35.919 43.927 C 36.617 42.567,37.281 41.887,38.340 41.447 C 40.449 40.572,359.654 40.477,361.746 41.352 M104.900 114.695 C 102.992 114.828,102.800 114.929,102.800 115.801 C 102.800 116.823,100.629 118.800,99.505 118.800 C 98.636 118.800,98.400 119.655,98.400 122.800 C 98.400 125.945,98.636 126.800,99.505 126.800 C 100.504 126.800,102.733 128.719,102.872 129.699 C 103.076 131.135,101.962 131.119,205.041 131.160 C 312.336 131.204,307.329 131.293,308.263 129.324 C 308.887 128.009,310.551 126.800,311.737 126.800 C 312.563 126.800,312.800 125.907,312.800 122.800 C 312.800 119.693,312.563 118.800,311.737 118.800 C 310.551 118.800,308.887 117.591,308.263 116.276 C 307.658 115.000,307.464 114.900,305.150 114.658 C 302.622 114.394,108.693 114.430,104.900 114.695 M104.900 194.695 C 102.992 194.828,102.800 194.929,102.800 195.801 C 102.800 196.823,100.629 198.800,99.505 198.800 C 98.636 198.800,98.400 199.655,98.400 202.800 C 98.400 205.945,98.636 206.800,99.505 206.800 C 100.504 206.800,102.733 208.719,102.872 209.699 C 103.076 211.135,101.962 211.119,205.041 211.160 C 312.336 211.204,307.329 211.293,308.263 209.324 C 308.887 208.009,310.551 206.800,311.737 206.800 C 312.563 206.800,312.800 205.907,312.800 202.800 C 312.800 199.693,312.563 198.800,311.737 198.800 C 310.551 198.800,308.887 197.591,308.263 196.276 C 307.658 195.000,307.464 194.900,305.150 194.658 C 302.622 194.394,108.693 194.430,104.900 194.695 M104.900 274.695 C 102.992 274.828,102.800 274.929,102.800 275.801 C 102.800 276.823,100.629 278.800,99.505 278.800 C 98.636 278.800,98.400 279.655,98.400 282.800 C 98.400 285.945,98.636 286.800,99.505 286.800 C 100.504 286.800,102.733 288.719,102.872 289.699 C 103.076 291.135,101.962 291.119,205.041 291.160 C 312.336 291.204,307.329 291.293,308.263 289.324 C 308.887 288.009,310.551 286.800,311.737 286.800 C 312.563 286.800,312.800 285.907,312.800 282.800 C 312.800 279.693,312.563 278.800,311.737 278.800 C 310.551 278.800,308.887 277.591,308.263 276.276 C 307.658 275.000,307.464 274.900,305.150 274.658 C 302.622 274.394,108.693 274.430,104.900 274.695 " stroke="none" fill="#fbfbfb" fill-rule="evenodd"></path><path id="path1" d="M46.200 22.601 C 42.122 23.030,40.979 23.314,38.600 24.490 C 35.437 26.054,34.255 26.505,31.400 27.236 C 29.048 27.838,27.371 28.778,26.547 29.954 C 26.221 30.419,25.768 30.800,25.539 30.800 C 25.311 30.800,24.559 31.205,23.870 31.700 C 23.181 32.195,22.322 32.780,21.961 33.000 C 20.250 34.044,18.968 35.033,18.642 35.559 C 18.109 36.419,13.495 40.800,13.122 40.800 C 12.945 40.800,12.800 41.042,12.800 41.339 C 12.800 41.635,12.422 42.310,11.961 42.839 C 11.500 43.367,10.798 44.430,10.402 45.200 C 10.006 45.970,9.089 47.220,8.365 47.977 C 7.162 49.233,5.555 53.095,4.640 56.928 C 4.101 59.184,2.715 60.790,1.300 60.795 L 0.000 60.800 0.000 65.800 L 0.000 70.800 1.384 70.800 C 3.952 70.800,6.531 66.372,6.977 61.200 C 7.528 54.802,7.898 53.552,9.788 51.724 C 12.283 49.310,12.800 48.427,12.800 46.574 C 12.800 45.002,12.873 44.905,14.379 44.454 C 15.913 43.994,17.600 42.395,17.600 41.400 C 17.600 40.480,19.254 38.800,20.159 38.800 C 21.265 38.800,22.800 37.244,22.800 36.123 C 22.800 34.999,23.482 34.519,25.816 34.001 C 27.392 33.651,28.263 33.104,30.049 31.343 L 32.298 29.126 36.449 28.794 C 40.785 28.447,44.261 27.749,44.630 27.151 C 44.750 26.958,45.164 26.800,45.552 26.800 C 45.939 26.800,47.045 26.125,48.008 25.300 L 49.761 23.800 200.039 23.800 L 350.318 23.800 351.879 25.054 C 354.692 27.315,359.406 28.800,363.770 28.800 C 366.815 28.800,368.477 29.209,368.687 30.011 C 368.786 30.390,369.302 30.934,369.834 31.218 C 370.365 31.502,370.800 31.947,370.800 32.207 C 370.800 32.776,373.242 33.879,375.266 34.226 C 376.411 34.421,376.789 34.703,376.993 35.514 C 377.433 37.269,378.762 38.800,379.845 38.800 C 381.121 38.800,382.800 40.479,382.800 41.755 C 382.800 42.838,384.331 44.167,386.086 44.607 C 386.897 44.811,387.179 45.189,387.374 46.334 C 387.721 48.358,388.824 50.800,389.393 50.800 C 389.653 50.800,390.098 51.235,390.382 51.766 C 390.666 52.298,391.210 52.814,391.589 52.913 C 392.395 53.124,392.794 54.765,392.814 57.950 C 392.838 61.806,394.487 67.668,396.006 69.299 C 396.443 69.767,396.800 70.297,396.800 70.475 C 396.800 70.654,397.520 70.800,398.400 70.800 L 400.000 70.800 400.000 65.800 L 400.000 60.800 398.587 60.800 C 397.599 60.800,397.104 60.590,396.938 60.100 C 396.808 59.715,396.274 58.510,395.751 57.421 C 395.228 56.333,394.800 55.060,394.800 54.593 C 394.800 52.894,393.546 50.128,391.823 48.028 C 390.855 46.848,389.733 45.233,389.331 44.441 C 388.725 43.247,385.403 39.481,381.378 35.428 C 380.106 34.146,378.426 32.800,378.097 32.799 C 377.934 32.799,376.810 32.081,375.600 31.205 C 374.390 30.328,372.770 29.165,372.000 28.621 C 371.230 28.076,369.430 27.335,368.000 26.973 C 366.570 26.610,363.870 25.584,362.000 24.692 C 358.968 23.245,358.059 23.014,353.600 22.556 C 346.352 21.812,53.303 21.855,46.200 22.601 M38.340 41.447 C 37.281 41.887,36.617 42.567,35.919 43.927 C 35.225 45.278,34.684 45.834,33.978 45.922 C 31.616 46.218,30.315 46.904,29.768 48.144 C 28.979 49.930,28.216 50.800,27.438 50.800 C 26.245 50.800,24.800 52.635,24.800 54.149 C 24.800 55.943,24.456 56.800,23.737 56.800 C 22.415 56.800,20.866 58.045,20.150 59.685 C 19.279 61.676,18.727 332.039,19.582 337.621 C 20.150 341.332,20.896 342.654,22.603 342.974 C 24.158 343.266,24.800 344.150,24.800 346.000 C 24.800 347.728,25.384 348.659,26.669 348.982 C 27.852 349.279,29.600 350.930,29.600 351.751 C 29.600 352.595,31.309 353.896,32.800 354.187 C 35.231 354.661,35.515 354.808,35.752 355.714 C 36.311 357.858,37.627 358.739,40.929 359.181 C 45.394 359.779,355.152 359.766,359.452 359.167 C 362.793 358.703,363.602 358.170,364.633 355.755 C 365.077 354.714,365.441 354.473,366.848 354.284 C 368.700 354.036,370.527 352.888,370.732 351.844 C 370.934 350.818,372.518 349.286,373.677 348.995 C 374.708 348.736,374.989 348.112,375.781 344.318 C 375.957 343.473,376.303 343.179,377.354 342.982 C 378.215 342.821,379.045 342.273,379.651 341.465 L 380.600 340.200 380.717 201.000 C 380.799 103.731,380.706 61.357,380.410 60.329 C 379.944 58.714,377.974 56.800,376.777 56.800 C 376.266 56.800,375.943 56.438,375.795 55.700 C 375.195 52.709,374.518 51.397,373.370 51.000 C 371.904 50.493,371.107 49.696,370.600 48.230 C 370.203 47.082,368.891 46.405,365.900 45.805 C 365.177 45.660,364.800 45.332,364.800 44.846 C 364.800 43.753,363.250 41.980,361.746 41.352 C 359.654 40.477,40.449 40.572,38.340 41.447 M356.900 43.386 C 357.945 43.819,358.800 44.314,358.800 44.486 C 358.800 44.659,359.011 44.800,359.269 44.800 C 359.526 44.800,360.032 45.067,360.392 45.393 C 360.752 45.718,362.497 46.694,364.271 47.561 C 366.676 48.736,367.721 49.502,368.384 50.574 C 368.872 51.364,370.033 52.535,370.962 53.174 C 372.275 54.077,372.950 54.992,373.983 57.268 C 374.715 58.881,375.622 60.560,376.000 61.000 C 376.377 61.440,377.207 62.880,377.843 64.200 L 379.000 66.600 379.000 200.200 L 379.000 333.800 377.801 336.200 C 377.142 337.520,376.388 338.827,376.126 339.104 C 375.864 339.381,374.922 341.124,374.033 342.978 C 372.883 345.376,372.102 346.500,371.324 346.874 C 370.723 347.163,369.684 348.144,369.016 349.053 C 367.773 350.741,365.072 352.800,364.098 352.800 C 363.800 352.800,362.171 353.675,360.478 354.745 C 355.190 358.088,370.282 357.800,200.200 357.800 C 30.129 357.800,44.831 358.076,39.800 354.793 C 38.716 354.085,37.723 353.575,34.866 352.259 C 33.737 351.739,32.527 350.614,31.246 348.895 C 30.721 348.191,29.707 347.270,28.992 346.848 C 28.025 346.278,27.260 345.176,26.000 342.541 C 25.069 340.593,24.138 338.937,23.931 338.859 C 23.009 338.514,21.564 334.093,21.175 330.429 C 20.335 322.517,20.872 68.115,21.733 66.000 C 22.136 65.010,22.561 63.800,22.677 63.310 C 22.794 62.821,23.274 61.991,23.745 61.467 C 24.789 60.303,26.800 56.678,26.800 55.960 C 26.800 55.281,29.206 52.800,29.864 52.800 C 30.143 52.800,30.587 52.399,30.849 51.908 C 31.112 51.418,31.564 50.779,31.854 50.489 C 32.145 50.198,32.521 49.744,32.691 49.480 C 33.040 48.938,37.166 46.784,37.838 46.794 C 38.079 46.797,38.619 46.420,39.038 45.955 C 40.433 44.407,43.627 43.110,46.800 42.804 C 55.045 42.008,354.931 42.571,356.900 43.386 M100.887 113.388 C 98.598 114.103,98.035 114.630,96.957 117.063 C 96.454 118.198,95.853 119.244,95.621 119.387 C 94.537 120.057,95.149 125.085,96.654 127.872 C 98.451 131.200,98.623 131.372,100.947 132.161 C 103.967 133.187,307.269 133.138,310.133 132.111 C 317.268 129.554,317.268 116.046,310.133 113.489 C 307.523 112.554,103.874 112.456,100.887 113.388 M305.150 114.658 C 307.464 114.900,307.658 115.000,308.263 116.276 C 308.887 117.591,310.551 118.800,311.737 118.800 C 312.563 118.800,312.800 119.693,312.800 122.800 C 312.800 125.907,312.563 126.800,311.737 126.800 C 310.551 126.800,308.887 128.009,308.263 129.324 C 307.329 131.293,312.336 131.204,205.041 131.160 C 101.962 131.119,103.076 131.135,102.872 129.699 C 102.733 128.719,100.504 126.800,99.505 126.800 C 98.636 126.800,98.400 125.945,98.400 122.800 C 98.400 119.655,98.636 118.800,99.505 118.800 C 100.629 118.800,102.800 116.823,102.800 115.801 C 102.800 114.929,102.992 114.828,104.900 114.695 C 108.693 114.430,302.622 114.394,305.150 114.658 M100.887 193.388 C 98.598 194.103,98.035 194.630,96.957 197.063 C 96.454 198.198,95.853 199.244,95.621 199.387 C 94.537 200.057,95.149 205.085,96.654 207.872 C 98.451 211.200,98.623 211.372,100.947 212.161 C 103.967 213.187,307.269 213.138,310.133 212.111 C 317.268 209.554,317.268 196.046,310.133 193.489 C 307.523 192.554,103.874 192.456,100.887 193.388 M305.150 194.658 C 307.464 194.900,307.658 195.000,308.263 196.276 C 308.887 197.591,310.551 198.800,311.737 198.800 C 312.563 198.800,312.800 199.693,312.800 202.800 C 312.800 205.907,312.563 206.800,311.737 206.800 C 310.551 206.800,308.887 208.009,308.263 209.324 C 307.329 211.293,312.336 211.204,205.041 211.160 C 101.962 211.119,103.076 211.135,102.872 209.699 C 102.733 208.719,100.504 206.800,99.505 206.800 C 98.636 206.800,98.400 205.945,98.400 202.800 C 98.400 199.655,98.636 198.800,99.505 198.800 C 100.629 198.800,102.800 196.823,102.800 195.801 C 102.800 194.929,102.992 194.828,104.900 194.695 C 108.693 194.430,302.622 194.394,305.150 194.658 M100.887 273.388 C 98.598 274.103,98.035 274.630,96.957 277.063 C 96.454 278.198,95.853 279.244,95.621 279.387 C 94.537 280.057,95.149 285.085,96.654 287.872 C 98.451 291.200,98.623 291.372,100.947 292.161 C 103.967 293.187,307.269 293.138,310.133 292.111 C 317.268 289.554,317.268 276.046,310.133 273.489 C 307.523 272.554,103.874 272.456,100.887 273.388 M305.150 274.658 C 307.464 274.900,307.658 275.000,308.263 276.276 C 308.887 277.591,310.551 278.800,311.737 278.800 C 312.563 278.800,312.800 279.693,312.800 282.800 C 312.800 285.907,312.563 286.800,311.737 286.800 C 310.551 286.800,308.887 288.009,308.263 289.324 C 307.329 291.293,312.336 291.204,205.041 291.160 C 101.962 291.119,103.076 291.135,102.872 289.699 C 102.733 288.719,100.504 286.800,99.505 286.800 C 98.636 286.800,98.400 285.945,98.400 282.800 C 98.400 279.655,98.636 278.800,99.505 278.800 C 100.629 278.800,102.800 276.823,102.800 275.801 C 102.800 274.929,102.992 274.828,104.900 274.695 C 108.693 274.430,302.622 274.394,305.150 274.658 M396.434 330.307 C 395.546 331.311,394.517 333.567,393.562 336.600 C 393.355 337.260,393.027 339.728,392.834 342.084 L 392.483 346.367 390.262 348.625 C 388.399 350.518,387.966 351.237,387.585 353.071 C 387.149 355.170,387.052 355.293,385.162 356.129 C 383.419 356.900,383.135 357.203,382.694 358.761 C 382.262 360.285,381.985 360.594,380.624 361.065 C 378.551 361.783,377.687 362.615,377.148 364.415 C 376.720 365.844,376.605 365.920,374.052 366.450 C 372.011 366.873,371.311 367.202,371.016 367.875 C 370.804 368.357,370.296 368.838,369.886 368.946 C 369.476 369.053,369.047 369.498,368.933 369.934 C 368.759 370.599,368.160 370.805,365.263 371.201 C 356.432 372.407,353.399 373.345,351.246 375.536 L 350.200 376.600 205.400 376.725 C 55.158 376.855,49.385 376.814,49.007 375.621 C 48.473 373.940,43.721 372.440,34.945 371.183 C 32.171 370.785,31.615 370.575,31.178 369.758 C 30.896 369.231,30.421 368.800,30.124 368.800 C 29.826 368.800,29.391 368.379,29.156 367.864 C 28.819 367.123,28.218 366.833,26.265 366.470 C 23.684 365.991,22.800 365.297,22.800 363.751 C 22.800 362.756,21.182 361.412,19.467 360.981 C 18.660 360.779,18.172 360.218,17.557 358.789 C 16.859 357.166,16.435 356.741,14.818 356.046 C 12.944 355.240,12.900 355.180,12.708 353.179 C 12.531 351.342,12.284 350.906,10.260 348.860 L 8.008 346.585 7.406 342.593 C 7.076 340.397,6.804 338.042,6.802 337.360 C 6.801 336.677,6.350 335.273,5.800 334.238 C 5.250 333.204,4.800 332.148,4.800 331.892 C 4.800 330.990,2.701 329.600,1.338 329.600 L 0.000 329.600 0.000 334.600 L 0.000 339.600 1.311 339.600 C 2.643 339.600,4.800 342.033,4.800 343.536 C 4.800 345.329,7.055 350.749,8.488 352.400 C 10.618 354.855,10.800 355.105,10.800 355.580 C 10.800 356.991,19.300 365.637,22.710 367.695 C 23.899 368.413,25.891 369.853,27.136 370.896 C 28.594 372.118,29.782 372.794,30.473 372.796 C 31.900 372.801,37.829 375.007,39.099 376.007 C 39.654 376.443,40.489 376.800,40.954 376.800 C 41.419 376.801,43.150 377.116,44.800 377.500 C 49.455 378.586,350.945 378.586,355.600 377.500 C 357.250 377.116,358.946 376.801,359.369 376.800 C 359.791 376.800,360.430 376.535,360.789 376.210 C 361.734 375.355,367.068 373.227,368.971 372.946 C 370.834 372.671,372.012 372.011,374.000 370.131 C 374.770 369.403,375.529 368.805,375.686 368.803 C 377.326 368.784,387.498 359.249,389.157 356.177 C 390.465 353.754,390.943 353.055,391.667 352.506 C 392.814 351.637,393.883 349.504,394.569 346.717 C 395.781 341.788,397.030 339.600,398.629 339.600 L 400.000 339.600 400.000 334.400 L 400.000 329.200 398.700 329.207 C 397.792 329.212,397.108 329.544,396.434 330.307 " stroke="none" fill="#dcdcdc" fill-rule="evenodd"></path><path id="path2" d="M44.000 20.778 C 39.275 21.033,35.862 22.036,34.400 23.601 C 34.070 23.954,32.270 24.753,30.400 25.375 C 26.128 26.797,25.816 26.963,23.854 28.848 C 22.968 29.700,21.873 30.508,21.422 30.644 C 20.970 30.781,20.060 31.290,19.400 31.776 C 18.740 32.262,17.885 32.775,17.500 32.917 C 17.115 33.059,16.800 33.410,16.800 33.698 C 16.800 34.238,14.921 36.210,12.300 38.419 C 11.475 39.114,10.800 39.856,10.800 40.068 C 10.800 40.280,10.371 41.026,9.846 41.727 C 9.322 42.427,8.770 43.405,8.619 43.900 C 8.469 44.395,8.202 44.800,8.027 44.800 C 7.404 44.800,4.800 48.545,4.800 49.439 C 4.800 51.811,2.769 55.200,1.348 55.200 L 0.000 55.200 0.000 58.000 L 0.000 60.800 1.300 60.795 C 2.715 60.790,4.101 59.184,4.640 56.928 C 5.555 53.095,7.162 49.233,8.365 47.977 C 9.089 47.220,10.006 45.970,10.402 45.200 C 10.798 44.430,11.500 43.367,11.961 42.839 C 12.422 42.310,12.800 41.635,12.800 41.339 C 12.800 41.042,12.945 40.800,13.122 40.800 C 13.495 40.800,18.109 36.419,18.642 35.559 C 18.968 35.033,20.250 34.044,21.961 33.000 C 22.322 32.780,23.181 32.195,23.870 31.700 C 24.559 31.205,25.311 30.800,25.539 30.800 C 25.768 30.800,26.221 30.419,26.547 29.954 C 27.371 28.778,29.048 27.838,31.400 27.236 C 34.247 26.507,35.432 26.056,38.600 24.495 C 43.882 21.894,35.936 22.015,200.400 22.030 C 365.685 22.044,356.119 21.886,362.000 24.692 C 363.870 25.584,366.570 26.610,368.000 26.973 C 369.430 27.335,371.230 28.076,372.000 28.621 C 372.770 29.165,374.390 30.328,375.600 31.205 C 376.810 32.081,377.934 32.799,378.097 32.799 C 378.426 32.800,380.106 34.146,381.378 35.428 C 385.403 39.481,388.725 43.247,389.331 44.441 C 389.733 45.233,390.855 46.848,391.823 48.028 C 393.546 50.128,394.800 52.894,394.800 54.593 C 394.800 55.060,395.228 56.333,395.751 57.421 C 396.274 58.510,396.808 59.715,396.938 60.100 C 397.104 60.590,397.599 60.800,398.587 60.800 L 400.000 60.800 400.000 58.024 L 400.000 55.248 398.542 55.124 C 397.186 55.009,397.049 54.874,396.589 53.200 C 395.564 49.466,394.470 47.104,393.105 45.675 C 392.329 44.864,391.470 43.750,391.196 43.200 C 390.058 40.920,388.532 38.890,387.121 37.780 C 386.296 37.131,385.005 35.830,384.253 34.889 C 382.751 33.010,380.927 31.568,378.854 30.618 C 378.113 30.279,376.765 29.282,375.858 28.401 C 374.951 27.520,373.979 26.800,373.699 26.800 C 373.418 26.800,372.877 26.623,372.495 26.406 C 372.113 26.189,370.639 25.635,369.221 25.175 C 367.803 24.715,366.141 23.916,365.527 23.400 C 364.914 22.884,363.375 22.043,362.106 21.531 L 359.800 20.600 204.200 20.565 C 118.620 20.546,46.530 20.642,44.000 20.778 M46.800 42.804 C 43.627 43.110,40.433 44.407,39.038 45.955 C 38.619 46.420,38.079 46.797,37.838 46.794 C 37.166 46.784,33.040 48.938,32.691 49.480 C 32.521 49.744,32.145 50.198,31.854 50.489 C 31.564 50.779,31.112 51.418,30.849 51.908 C 30.587 52.399,30.143 52.800,29.864 52.800 C 29.206 52.800,26.800 55.281,26.800 55.960 C 26.800 56.678,24.789 60.303,23.745 61.467 C 23.274 61.991,22.794 62.821,22.677 63.310 C 22.561 63.800,22.136 65.010,21.733 66.000 C 20.872 68.115,20.335 322.517,21.175 330.429 C 21.564 334.093,23.009 338.514,23.931 338.859 C 24.138 338.937,25.069 340.593,26.000 342.541 C 27.260 345.176,28.025 346.278,28.992 346.848 C 29.707 347.270,30.721 348.191,31.246 348.895 C 32.527 350.614,33.737 351.739,34.866 352.259 C 37.723 353.575,38.716 354.085,39.800 354.793 C 44.831 358.076,30.129 357.800,200.200 357.800 C 370.282 357.800,355.190 358.088,360.478 354.745 C 362.171 353.675,363.800 352.800,364.098 352.800 C 365.072 352.800,367.773 350.741,369.016 349.053 C 369.684 348.144,370.723 347.163,371.324 346.874 C 372.102 346.500,372.883 345.376,374.033 342.978 C 374.922 341.124,375.864 339.381,376.126 339.104 C 376.388 338.827,377.142 337.520,377.801 336.200 L 379.000 333.800 379.000 200.200 L 379.000 66.600 377.843 64.200 C 377.207 62.880,376.377 61.440,376.000 61.000 C 375.622 60.560,374.715 58.881,373.983 57.268 C 372.950 54.992,372.275 54.077,370.962 53.174 C 370.033 52.535,368.872 51.364,368.384 50.574 C 367.721 49.502,366.676 48.736,364.271 47.561 C 362.497 46.694,360.752 45.718,360.392 45.393 C 360.032 45.067,359.526 44.800,359.269 44.800 C 359.011 44.800,358.800 44.659,358.800 44.486 C 358.800 44.314,357.945 43.819,356.900 43.386 C 354.931 42.571,55.045 42.008,46.800 42.804 M351.719 44.563 C 354.181 44.936,355.504 45.344,356.119 45.919 C 357.062 46.798,360.833 48.800,361.547 48.800 C 362.811 48.800,366.344 50.798,366.605 51.661 C 367.000 52.965,368.693 54.687,369.872 54.982 C 370.783 55.211,372.800 58.704,372.800 60.053 C 372.800 60.771,374.804 64.540,375.692 65.491 C 377.604 67.542,377.572 65.216,377.571 199.800 C 377.570 333.935,377.579 333.243,375.743 334.742 C 374.845 335.475,373.328 338.527,372.002 342.266 C 371.375 344.035,370.884 344.798,370.264 344.968 C 368.973 345.322,367.215 347.036,366.736 348.410 C 366.311 349.630,364.662 350.789,363.320 350.813 C 362.924 350.819,361.700 351.268,360.600 351.809 C 359.500 352.350,358.382 352.794,358.116 352.796 C 357.850 352.798,357.220 353.242,356.716 353.782 C 356.212 354.322,354.720 355.087,353.400 355.482 C 349.907 356.527,54.390 356.815,48.800 355.779 C 45.727 355.209,42.810 353.906,42.803 353.100 C 42.801 352.935,42.524 352.800,42.187 352.800 C 41.849 352.800,40.724 352.375,39.687 351.855 C 38.649 351.335,37.117 350.785,36.283 350.633 C 35.031 350.406,34.564 350.028,33.605 348.470 C 32.386 346.489,30.459 344.800,29.416 344.800 C 29.070 344.800,28.800 344.455,28.800 344.012 C 28.800 343.578,28.374 342.273,27.852 341.112 C 27.331 339.950,26.795 338.550,26.662 338.000 C 26.528 337.450,25.846 336.394,25.146 335.654 C 22.660 333.025,22.812 341.856,22.812 200.200 C 22.812 59.575,22.691 67.210,24.964 64.837 C 25.949 63.810,26.637 62.330,28.410 57.435 C 29.000 55.805,29.412 55.328,30.830 54.635 C 31.900 54.112,32.809 53.285,33.260 52.424 C 34.286 50.465,34.691 50.162,37.565 49.203 C 40.869 48.101,43.617 46.686,44.496 45.633 C 44.985 45.048,45.699 44.786,46.896 44.753 C 47.833 44.727,49.140 44.568,49.800 44.400 C 52.136 43.806,347.782 43.965,351.719 44.563 M101.161 111.205 C 97.700 111.791,96.447 112.823,94.465 116.722 C 93.984 117.670,93.232 118.829,92.795 119.298 C 91.675 120.500,91.651 125.074,92.758 126.263 C 93.175 126.710,94.136 128.229,94.893 129.638 C 97.939 135.305,87.128 134.800,205.433 134.797 C 319.133 134.794,313.141 134.972,314.975 131.543 C 315.252 131.024,315.902 129.790,316.420 128.800 C 316.938 127.810,317.686 126.765,318.081 126.477 C 319.136 125.710,319.136 119.890,318.081 119.123 C 317.686 118.835,316.938 117.790,316.420 116.800 C 315.902 115.810,315.252 114.576,314.975 114.057 C 314.227 112.660,312.325 111.670,309.506 111.213 C 306.519 110.728,104.026 110.721,101.161 111.205 M310.133 113.489 C 317.268 116.046,317.268 129.554,310.133 132.111 C 307.269 133.138,103.967 133.187,100.947 132.161 C 98.623 131.372,98.451 131.200,96.654 127.872 C 95.149 125.085,94.537 120.057,95.621 119.387 C 95.853 119.244,96.454 118.198,96.957 117.063 C 98.035 114.630,98.598 114.103,100.887 113.388 C 103.874 112.456,307.523 112.554,310.133 113.489 M101.161 191.205 C 97.700 191.791,96.447 192.823,94.465 196.722 C 93.984 197.670,93.232 198.829,92.795 199.298 C 91.675 200.500,91.651 205.074,92.758 206.263 C 93.175 206.710,94.136 208.229,94.893 209.638 C 97.939 215.305,87.128 214.800,205.433 214.797 C 319.133 214.794,313.141 214.972,314.975 211.543 C 315.252 211.024,315.902 209.790,316.420 208.800 C 316.938 207.810,317.686 206.765,318.081 206.477 C 319.136 205.710,319.136 199.890,318.081 199.123 C 317.686 198.835,316.938 197.790,316.420 196.800 C 315.902 195.810,315.252 194.576,314.975 194.057 C 314.227 192.660,312.325 191.670,309.506 191.213 C 306.519 190.728,104.026 190.721,101.161 191.205 M310.133 193.489 C 317.268 196.046,317.268 209.554,310.133 212.111 C 307.269 213.138,103.967 213.187,100.947 212.161 C 98.623 211.372,98.451 211.200,96.654 207.872 C 95.149 205.085,94.537 200.057,95.621 199.387 C 95.853 199.244,96.454 198.198,96.957 197.063 C 98.035 194.630,98.598 194.103,100.887 193.388 C 103.874 192.456,307.523 192.554,310.133 193.489 M101.161 271.205 C 97.700 271.791,96.447 272.823,94.465 276.722 C 93.984 277.670,93.232 278.829,92.795 279.298 C 91.675 280.500,91.651 285.074,92.758 286.263 C 93.175 286.710,94.136 288.229,94.893 289.638 C 97.939 295.305,87.128 294.800,205.433 294.797 C 319.133 294.794,313.141 294.972,314.975 291.543 C 315.252 291.024,315.902 289.790,316.420 288.800 C 316.938 287.810,317.686 286.765,318.081 286.477 C 319.136 285.710,319.136 279.890,318.081 279.123 C 317.686 278.835,316.938 277.790,316.420 276.800 C 315.902 275.810,315.252 274.576,314.975 274.057 C 314.227 272.660,312.325 271.670,309.506 271.213 C 306.519 270.728,104.026 270.721,101.161 271.205 M310.133 273.489 C 317.268 276.046,317.268 289.554,310.133 292.111 C 307.269 293.138,103.967 293.187,100.947 292.161 C 98.623 291.372,98.451 291.200,96.654 287.872 C 95.149 285.085,94.537 280.057,95.621 279.387 C 95.853 279.244,96.454 278.198,96.957 277.063 C 98.035 274.630,98.598 274.103,100.887 273.388 C 103.874 272.456,307.523 272.554,310.133 273.489 M0.000 342.200 L 0.000 344.800 1.300 344.801 C 2.656 344.803,4.253 347.690,5.007 351.500 C 5.148 352.215,5.399 352.800,5.564 352.800 C 5.730 352.800,6.104 353.247,6.396 353.793 C 6.689 354.340,7.237 354.885,7.614 355.004 C 7.991 355.124,8.607 356.027,8.983 357.011 C 9.359 357.995,9.819 358.800,10.006 358.800 C 10.193 358.800,10.472 359.198,10.627 359.685 C 10.918 360.602,12.907 362.800,13.446 362.800 C 13.615 362.800,14.441 363.565,15.281 364.500 C 18.115 367.653,19.397 368.796,20.100 368.798 C 20.485 368.799,20.800 368.948,20.800 369.129 C 20.800 369.310,21.600 369.858,22.579 370.346 C 23.557 370.835,24.460 371.542,24.586 371.917 C 24.849 372.703,27.009 373.773,30.412 374.803 C 31.714 375.198,33.836 376.226,35.126 377.087 C 39.479 379.994,27.698 379.800,200.200 379.800 C 371.437 379.800,360.624 379.968,364.800 377.250 C 367.335 375.599,369.014 374.800,369.946 374.800 C 371.019 374.799,375.460 372.541,375.720 371.864 C 375.853 371.518,376.645 370.863,377.481 370.408 C 380.908 368.539,381.865 367.800,385.162 364.476 C 388.704 360.906,390.043 359.245,391.349 356.802 C 391.762 356.031,392.672 354.840,393.372 354.156 C 394.301 353.248,395.005 351.820,395.981 348.856 L 397.319 344.800 398.659 344.800 L 400.000 344.800 400.000 342.200 L 400.000 339.600 398.629 339.600 C 397.030 339.600,395.781 341.788,394.569 346.717 C 393.883 349.504,392.814 351.637,391.667 352.506 C 390.943 353.055,390.465 353.754,389.157 356.177 C 387.498 359.249,377.326 368.784,375.686 368.803 C 375.529 368.805,374.770 369.403,374.000 370.131 C 372.012 372.011,370.834 372.671,368.971 372.946 C 367.068 373.227,361.734 375.355,360.789 376.210 C 360.430 376.535,359.791 376.800,359.369 376.800 C 358.946 376.801,357.250 377.116,355.600 377.500 C 350.945 378.586,49.455 378.586,44.800 377.500 C 43.150 377.116,41.419 376.801,40.954 376.800 C 40.489 376.800,39.654 376.443,39.099 376.007 C 37.829 375.007,31.900 372.801,30.473 372.796 C 29.782 372.794,28.594 372.118,27.136 370.896 C 25.891 369.853,23.899 368.413,22.710 367.695 C 19.300 365.637,10.800 356.991,10.800 355.580 C 10.800 355.105,10.618 354.855,8.488 352.400 C 7.055 350.749,4.800 345.329,4.800 343.536 C 4.800 342.033,2.643 339.600,1.311 339.600 L 0.000 339.600 0.000 342.200 " stroke="none" fill="#545454" fill-rule="evenodd"></path><path id="path3" d="M40.400 19.808 C 40.070 19.873,38.450 20.159,36.800 20.442 C 33.766 20.962,33.281 21.268,30.884 24.175 C 30.568 24.558,29.728 24.800,28.716 24.800 C 26.598 24.800,22.308 26.858,21.386 28.316 C 20.454 29.788,19.169 30.780,18.178 30.791 C 17.208 30.802,14.800 33.153,14.800 34.090 C 14.800 34.866,13.055 36.321,11.724 36.655 C 11.037 36.827,10.432 37.635,9.513 39.606 C 8.598 41.571,7.926 42.470,7.080 42.860 C 6.046 43.338,5.536 44.013,4.367 46.451 C 4.195 46.809,3.935 47.799,3.789 48.651 C 3.211 52.030,2.752 52.800,1.320 52.800 C 0.120 52.800,0.000 52.909,0.000 54.000 C 0.000 55.096,0.117 55.200,1.348 55.200 C 2.769 55.200,4.800 51.811,4.800 49.439 C 4.800 48.545,7.404 44.800,8.027 44.800 C 8.202 44.800,8.469 44.395,8.619 43.900 C 8.770 43.405,9.322 42.427,9.846 41.727 C 10.371 41.026,10.800 40.280,10.800 40.068 C 10.800 39.856,11.475 39.114,12.300 38.419 C 14.921 36.210,16.800 34.238,16.800 33.698 C 16.800 33.410,17.115 33.059,17.500 32.917 C 17.885 32.775,18.740 32.262,19.400 31.776 C 20.060 31.290,20.970 30.781,21.422 30.644 C 21.873 30.508,22.968 29.700,23.854 28.848 C 25.816 26.963,26.128 26.797,30.400 25.375 C 32.270 24.753,34.070 23.947,34.400 23.585 C 34.730 23.222,36.260 22.403,37.800 21.763 L 40.600 20.600 200.200 20.600 L 359.800 20.600 362.106 21.531 C 363.375 22.043,364.914 22.884,365.527 23.400 C 366.141 23.916,367.803 24.715,369.221 25.175 C 370.639 25.635,372.113 26.189,372.495 26.406 C 372.877 26.623,373.418 26.800,373.699 26.800 C 373.979 26.800,374.951 27.520,375.858 28.401 C 376.765 29.282,378.113 30.279,378.854 30.618 C 380.927 31.568,382.751 33.010,384.253 34.889 C 385.005 35.830,386.296 37.131,387.121 37.780 C 388.532 38.890,390.058 40.920,391.196 43.200 C 391.470 43.750,392.329 44.864,393.105 45.675 C 394.470 47.104,395.564 49.466,396.589 53.200 C 397.247 55.593,400.000 56.258,400.000 54.024 C 400.000 52.895,399.893 52.800,398.618 52.800 C 397.117 52.800,397.289 53.154,396.587 48.627 C 396.280 46.649,394.455 43.593,393.133 42.844 C 392.509 42.490,391.896 41.885,391.772 41.500 C 391.648 41.115,391.378 40.800,391.173 40.800 C 390.968 40.800,390.800 40.374,390.800 39.854 C 390.800 38.673,389.468 36.934,388.290 36.579 C 387.147 36.234,385.200 34.416,385.200 33.694 C 385.200 32.745,382.936 30.800,381.831 30.800 C 381.264 30.800,380.800 30.632,380.800 30.427 C 380.800 30.222,380.459 29.946,380.043 29.814 C 379.627 29.682,379.083 29.084,378.835 28.486 C 378.345 27.302,375.053 25.349,373.000 25.024 C 372.340 24.919,371.125 24.728,370.300 24.599 C 369.328 24.446,368.800 24.150,368.800 23.756 C 368.800 22.782,366.426 21.049,364.228 20.418 C 362.416 19.899,42.976 19.297,40.400 19.808 M49.800 44.400 C 49.140 44.568,47.833 44.727,46.896 44.753 C 45.699 44.786,44.985 45.048,44.496 45.633 C 43.617 46.686,40.869 48.101,37.565 49.203 C 34.691 50.162,34.286 50.465,33.260 52.424 C 32.809 53.285,31.900 54.112,30.830 54.635 C 29.412 55.328,29.000 55.805,28.410 57.435 C 26.637 62.330,25.949 63.810,24.964 64.837 C 22.691 67.210,22.812 59.575,22.812 200.200 C 22.812 341.856,22.660 333.025,25.146 335.654 C 25.846 336.394,26.528 337.450,26.662 338.000 C 26.795 338.550,27.331 339.950,27.852 341.112 C 28.374 342.273,28.800 343.578,28.800 344.012 C 28.800 344.455,29.070 344.800,29.416 344.800 C 30.459 344.800,32.386 346.489,33.605 348.470 C 34.564 350.028,35.031 350.406,36.283 350.633 C 37.117 350.785,38.649 351.335,39.687 351.855 C 40.724 352.375,41.849 352.800,42.187 352.800 C 42.524 352.800,42.801 352.935,42.803 353.100 C 42.810 353.906,45.727 355.209,48.800 355.779 C 54.390 356.815,349.907 356.527,353.400 355.482 C 354.720 355.087,356.212 354.322,356.716 353.782 C 357.220 353.242,357.850 352.798,358.116 352.796 C 358.382 352.794,359.500 352.350,360.600 351.809 C 361.700 351.268,362.924 350.819,363.320 350.813 C 364.662 350.789,366.311 349.630,366.736 348.410 C 367.215 347.036,368.973 345.322,370.264 344.968 C 370.884 344.798,371.375 344.035,372.002 342.266 C 373.328 338.527,374.845 335.475,375.743 334.742 C 377.579 333.243,377.570 333.935,377.571 199.800 C 377.572 65.216,377.604 67.542,375.692 65.491 C 374.804 64.540,372.800 60.771,372.800 60.053 C 372.800 58.704,370.783 55.211,369.872 54.982 C 368.693 54.687,367.000 52.965,366.605 51.661 C 366.344 50.798,362.811 48.800,361.547 48.800 C 360.833 48.800,357.062 46.798,356.119 45.919 C 354.034 43.973,358.517 44.026,199.600 44.062 C 117.870 44.080,50.460 44.232,49.800 44.400 M352.349 45.800 C 353.546 47.211,355.587 48.440,357.722 49.036 C 363.427 50.627,364.021 50.921,365.455 52.875 C 366.216 53.912,367.717 55.405,368.791 56.193 C 370.177 57.211,370.822 57.998,371.017 58.913 C 371.169 59.621,371.418 60.380,371.571 60.600 C 371.724 60.820,372.083 61.990,372.367 63.200 C 372.908 65.496,374.382 68.120,375.781 69.277 L 376.600 69.954 376.600 200.009 C 376.600 325.666,376.575 330.083,375.867 330.601 C 375.177 331.105,374.061 332.793,373.224 334.600 C 373.020 335.040,372.347 337.017,371.727 338.994 C 370.640 342.463,369.067 344.754,367.750 344.788 C 367.502 344.795,366.692 345.692,365.950 346.781 C 365.197 347.885,363.980 349.062,363.200 349.440 C 362.430 349.813,361.487 350.271,361.105 350.459 C 360.723 350.646,359.823 350.809,359.105 350.819 C 358.387 350.830,357.170 351.180,356.400 351.597 C 355.630 352.015,354.577 352.549,354.060 352.784 C 353.543 353.019,352.823 353.575,352.460 354.020 C 351.221 355.540,346.693 355.587,200.200 355.587 C 49.938 355.587,49.082 355.577,47.438 353.803 C 46.927 353.251,46.312 352.800,46.072 352.800 C 45.832 352.800,44.972 352.350,44.162 351.800 C 43.272 351.196,42.116 350.797,41.244 350.793 C 39.505 350.785,35.572 348.889,35.006 347.785 C 34.240 346.292,33.399 345.327,32.404 344.798 C 30.333 343.698,29.257 342.172,28.622 339.432 C 27.988 336.698,26.674 333.438,25.858 332.574 C 23.110 329.666,23.219 335.134,23.216 200.000 C 23.213 69.054,23.183 70.962,25.304 68.292 C 26.930 66.246,27.803 64.250,28.581 60.800 C 29.068 58.644,29.427 57.977,30.684 56.896 C 33.017 54.889,34.517 53.390,35.459 52.126 C 36.270 51.037,39.097 49.844,43.000 48.945 C 44.227 48.662,45.823 47.692,47.600 46.147 C 48.150 45.669,48.960 45.191,49.400 45.084 C 52.511 44.332,351.703 45.039,352.349 45.800 M97.684 110.792 C 96.214 111.142,94.800 112.249,94.800 113.048 C 94.800 114.261,93.409 116.388,92.382 116.746 C 89.060 117.904,89.072 127.700,92.397 128.859 C 93.404 129.210,94.176 130.428,94.945 132.877 C 95.664 135.170,86.825 135.000,205.656 135.000 L 313.947 135.000 315.136 133.861 C 315.815 133.211,316.514 131.970,316.766 130.968 C 317.108 129.609,317.434 129.156,318.209 128.962 C 321.933 128.027,321.935 117.573,318.210 116.638 C 317.434 116.443,317.109 115.992,316.766 114.632 C 316.514 113.630,315.815 112.389,315.136 111.739 L 313.948 110.600 206.474 110.539 C 147.363 110.506,98.408 110.619,97.684 110.792 M309.506 111.213 C 312.325 111.670,314.227 112.660,314.975 114.057 C 315.252 114.576,315.902 115.810,316.420 116.800 C 316.938 117.790,317.686 118.835,318.081 119.123 C 319.136 119.890,319.136 125.710,318.081 126.477 C 317.686 126.765,316.938 127.810,316.420 128.800 C 315.902 129.790,315.252 131.024,314.975 131.543 C 313.141 134.972,319.133 134.794,205.433 134.797 C 87.128 134.800,97.939 135.305,94.893 129.638 C 94.136 128.229,93.175 126.710,92.758 126.263 C 91.651 125.074,91.675 120.500,92.795 119.298 C 93.232 118.829,93.984 117.670,94.465 116.722 C 96.447 112.823,97.700 111.791,101.161 111.205 C 104.026 110.721,306.519 110.728,309.506 111.213 M97.684 190.792 C 96.214 191.142,94.800 192.249,94.800 193.048 C 94.800 194.261,93.409 196.388,92.382 196.746 C 89.060 197.904,89.072 207.700,92.397 208.859 C 93.404 209.210,94.176 210.428,94.945 212.877 C 95.664 215.170,86.825 215.000,205.656 215.000 L 313.947 215.000 315.136 213.861 C 315.815 213.211,316.514 211.970,316.766 210.968 C 317.108 209.609,317.434 209.156,318.209 208.962 C 321.933 208.027,321.935 197.573,318.210 196.638 C 317.434 196.443,317.109 195.992,316.766 194.632 C 316.514 193.630,315.815 192.389,315.136 191.739 L 313.948 190.600 206.474 190.539 C 147.363 190.506,98.408 190.619,97.684 190.792 M309.506 191.213 C 312.325 191.670,314.227 192.660,314.975 194.057 C 315.252 194.576,315.902 195.810,316.420 196.800 C 316.938 197.790,317.686 198.835,318.081 199.123 C 319.136 199.890,319.136 205.710,318.081 206.477 C 317.686 206.765,316.938 207.810,316.420 208.800 C 315.902 209.790,315.252 211.024,314.975 211.543 C 313.141 214.972,319.133 214.794,205.433 214.797 C 87.128 214.800,97.939 215.305,94.893 209.638 C 94.136 208.229,93.175 206.710,92.758 206.263 C 91.651 205.074,91.675 200.500,92.795 199.298 C 93.232 198.829,93.984 197.670,94.465 196.722 C 96.447 192.823,97.700 191.791,101.161 191.205 C 104.026 190.721,306.519 190.728,309.506 191.213 M97.684 270.792 C 96.214 271.142,94.800 272.249,94.800 273.048 C 94.800 274.261,93.409 276.388,92.382 276.746 C 89.060 277.904,89.072 287.700,92.397 288.859 C 93.404 289.210,94.176 290.428,94.945 292.877 C 95.664 295.170,86.825 295.000,205.656 295.000 L 313.947 295.000 315.136 293.861 C 315.815 293.211,316.514 291.970,316.766 290.968 C 317.108 289.609,317.434 289.156,318.209 288.962 C 321.933 288.027,321.935 277.573,318.210 276.638 C 317.434 276.443,317.109 275.992,316.766 274.632 C 316.514 273.630,315.815 272.389,315.136 271.739 L 313.948 270.600 206.474 270.539 C 147.363 270.506,98.408 270.619,97.684 270.792 M309.506 271.213 C 312.325 271.670,314.227 272.660,314.975 274.057 C 315.252 274.576,315.902 275.810,316.420 276.800 C 316.938 277.790,317.686 278.835,318.081 279.123 C 319.136 279.890,319.136 285.710,318.081 286.477 C 317.686 286.765,316.938 287.810,316.420 288.800 C 315.902 289.790,315.252 291.024,314.975 291.543 C 313.141 294.972,319.133 294.794,205.433 294.797 C 87.128 294.800,97.939 295.305,94.893 289.638 C 94.136 288.229,93.175 286.710,92.758 286.263 C 91.651 285.074,91.675 280.500,92.795 279.298 C 93.232 278.829,93.984 277.670,94.465 276.722 C 96.447 272.823,97.700 271.791,101.161 271.205 C 104.026 270.721,306.519 270.728,309.506 271.213 M0.000 346.200 C 0.000 347.521,0.076 347.600,1.336 347.600 C 2.564 347.600,2.711 347.737,3.160 349.300 C 4.930 355.461,5.112 355.791,8.140 358.316 C 8.328 358.472,8.958 359.590,9.540 360.800 C 10.419 362.623,10.959 363.193,12.700 364.125 C 13.979 364.811,14.800 365.519,14.800 365.936 C 14.800 367.123,16.028 368.441,17.870 369.230 C 18.847 369.649,20.401 370.764,21.323 371.708 C 23.592 374.029,24.648 374.634,27.000 374.959 C 29.845 375.352,30.862 375.847,32.000 377.393 C 32.770 378.438,33.645 378.964,35.800 379.675 L 38.600 380.600 200.400 380.600 L 362.200 380.600 364.567 379.707 C 366.959 378.804,368.800 377.450,368.800 376.594 C 368.800 376.074,370.823 375.350,373.705 374.839 C 375.749 374.477,378.800 372.633,378.800 371.760 C 378.800 371.467,379.205 371.015,379.700 370.754 C 380.195 370.494,380.690 370.160,380.800 370.012 C 380.910 369.864,381.720 369.465,382.600 369.124 C 383.839 368.644,384.395 368.100,385.067 366.713 C 385.647 365.515,386.383 364.710,387.289 364.280 C 389.271 363.339,390.800 361.774,390.800 360.686 C 390.800 359.793,393.307 356.800,394.055 356.800 C 394.888 356.800,397.138 350.287,397.198 347.700 C 397.199 347.645,397.830 347.600,398.600 347.600 C 399.933 347.600,400.000 347.533,400.000 346.200 C 400.000 344.878,399.925 344.800,398.659 344.800 L 397.319 344.800 395.981 348.856 C 395.005 351.820,394.301 353.248,393.372 354.156 C 392.672 354.840,391.762 356.031,391.349 356.802 C 390.043 359.245,388.704 360.906,385.162 364.476 C 381.865 367.800,380.908 368.539,377.481 370.408 C 376.645 370.863,375.853 371.518,375.720 371.864 C 375.460 372.541,371.019 374.799,369.946 374.800 C 369.014 374.800,367.335 375.599,364.800 377.250 C 360.624 379.968,371.437 379.800,200.200 379.800 C 27.698 379.800,39.479 379.994,35.126 377.087 C 33.836 376.226,31.714 375.198,30.412 374.803 C 27.009 373.773,24.849 372.703,24.586 371.917 C 24.460 371.542,23.557 370.835,22.579 370.346 C 21.600 369.858,20.800 369.310,20.800 369.129 C 20.800 368.948,20.485 368.799,20.100 368.798 C 19.397 368.796,18.115 367.653,15.281 364.500 C 14.441 363.565,13.615 362.800,13.446 362.800 C 12.907 362.800,10.918 360.602,10.627 359.685 C 10.472 359.198,10.193 358.800,10.006 358.800 C 9.819 358.800,9.359 357.995,8.983 357.011 C 8.607 356.027,7.991 355.124,7.614 355.004 C 7.237 354.885,6.689 354.340,6.396 353.793 C 6.104 353.247,5.730 352.800,5.564 352.800 C 5.399 352.800,5.148 352.215,5.007 351.500 C 4.253 347.690,2.656 344.803,1.300 344.801 C 0.081 344.800,0.000 344.887,0.000 346.200 " stroke="none" fill="#3c3c3c" fill-rule="evenodd"></path><path id="path4" d="M0.000 26.400 L 0.000 52.800 1.320 52.800 C 2.752 52.800,3.211 52.030,3.789 48.651 C 3.935 47.799,4.195 46.809,4.367 46.451 C 5.536 44.013,6.046 43.338,7.080 42.860 C 7.926 42.470,8.598 41.571,9.513 39.606 C 10.432 37.635,11.037 36.827,11.724 36.655 C 13.083 36.314,14.800 34.859,14.800 34.049 C 14.800 33.124,17.237 30.802,18.219 30.791 C 19.172 30.780,20.467 29.768,21.386 28.316 C 22.308 26.858,26.598 24.800,28.716 24.800 C 29.625 24.800,30.557 24.575,30.789 24.300 C 31.020 24.025,31.705 23.209,32.311 22.486 C 34.768 19.560,19.800 19.800,199.600 19.800 C 375.254 19.800,364.852 19.661,367.518 22.043 C 368.223 22.673,368.800 23.453,368.800 23.776 C 368.800 24.147,369.354 24.451,370.300 24.599 C 371.125 24.728,372.340 24.919,373.000 25.024 C 375.053 25.349,378.345 27.302,378.835 28.486 C 379.083 29.084,379.627 29.682,380.043 29.814 C 380.459 29.946,380.800 30.222,380.800 30.427 C 380.800 30.632,381.264 30.800,381.831 30.800 C 382.936 30.800,385.200 32.745,385.200 33.694 C 385.200 34.416,387.147 36.234,388.290 36.579 C 389.468 36.934,390.800 38.673,390.800 39.854 C 390.800 40.374,390.968 40.800,391.173 40.800 C 391.378 40.800,391.648 41.115,391.772 41.500 C 391.896 41.885,392.509 42.490,393.133 42.844 C 394.455 43.593,396.280 46.649,396.587 48.627 C 397.289 53.154,397.117 52.800,398.618 52.800 L 400.000 52.800 400.000 26.400 L 400.000 0.000 200.000 0.000 L 0.000 0.000 0.000 26.400 M49.400 45.084 C 48.960 45.191,48.150 45.669,47.600 46.147 C 45.823 47.692,44.227 48.662,43.000 48.945 C 39.097 49.844,36.270 51.037,35.459 52.126 C 34.517 53.390,33.017 54.889,30.684 56.896 C 29.427 57.977,29.068 58.644,28.581 60.800 C 27.803 64.250,26.930 66.246,25.304 68.292 C 23.183 70.962,23.213 69.054,23.216 200.000 C 23.219 335.134,23.110 329.666,25.858 332.574 C 26.674 333.438,27.988 336.698,28.622 339.432 C 29.257 342.172,30.333 343.698,32.404 344.798 C 33.399 345.327,34.240 346.292,35.006 347.785 C 35.572 348.889,39.505 350.785,41.244 350.793 C 42.116 350.797,43.272 351.196,44.162 351.800 C 44.972 352.350,45.832 352.800,46.072 352.800 C 46.312 352.800,46.927 353.251,47.438 353.803 C 49.082 355.577,49.938 355.587,200.200 355.587 C 346.693 355.587,351.221 355.540,352.460 354.020 C 352.823 353.575,353.543 353.019,354.060 352.784 C 354.577 352.549,355.630 352.015,356.400 351.597 C 357.170 351.180,358.387 350.830,359.105 350.819 C 359.823 350.809,360.723 350.646,361.105 350.459 C 361.487 350.271,362.430 349.813,363.200 349.440 C 363.980 349.062,365.197 347.885,365.950 346.781 C 366.692 345.692,367.502 344.795,367.750 344.788 C 369.067 344.754,370.640 342.463,371.727 338.994 C 372.347 337.017,373.020 335.040,373.224 334.600 C 374.061 332.793,375.177 331.105,375.867 330.601 C 376.575 330.083,376.600 325.666,376.600 200.009 L 376.600 69.954 375.781 69.277 C 374.382 68.120,372.908 65.496,372.367 63.200 C 372.083 61.990,371.724 60.820,371.571 60.600 C 371.418 60.380,371.169 59.621,371.017 58.913 C 370.822 57.998,370.177 57.211,368.791 56.193 C 367.717 55.405,366.216 53.912,365.455 52.875 C 364.021 50.921,363.427 50.627,357.722 49.036 C 355.587 48.440,353.546 47.211,352.349 45.800 C 351.703 45.039,52.511 44.332,49.400 45.084 M315.136 111.739 C 315.815 112.389,316.514 113.630,316.766 114.632 C 317.109 115.992,317.434 116.443,318.210 116.638 C 321.935 117.573,321.933 128.027,318.209 128.962 C 317.434 129.156,317.108 129.609,316.766 130.968 C 316.514 131.970,315.815 133.211,315.136 133.861 L 313.947 135.000 205.656 135.000 C 86.825 135.000,95.664 135.170,94.945 132.877 C 94.176 130.428,93.404 129.210,92.397 128.859 C 89.072 127.700,89.060 117.904,92.382 116.746 C 93.409 116.388,94.800 114.261,94.800 113.048 C 94.800 112.249,96.214 111.142,97.684 110.792 C 98.408 110.619,147.363 110.506,206.474 110.539 L 313.948 110.600 315.136 111.739 M315.136 191.739 C 315.815 192.389,316.514 193.630,316.766 194.632 C 317.109 195.992,317.434 196.443,318.210 196.638 C 321.935 197.573,321.933 208.027,318.209 208.962 C 317.434 209.156,317.108 209.609,316.766 210.968 C 316.514 211.970,315.815 213.211,315.136 213.861 L 313.947 215.000 205.656 215.000 C 86.825 215.000,95.664 215.170,94.945 212.877 C 94.176 210.428,93.404 209.210,92.397 208.859 C 89.072 207.700,89.060 197.904,92.382 196.746 C 93.409 196.388,94.800 194.261,94.800 193.048 C 94.800 192.249,96.214 191.142,97.684 190.792 C 98.408 190.619,147.363 190.506,206.474 190.539 L 313.948 190.600 315.136 191.739 M315.136 271.739 C 315.815 272.389,316.514 273.630,316.766 274.632 C 317.109 275.992,317.434 276.443,318.210 276.638 C 321.935 277.573,321.933 288.027,318.209 288.962 C 317.434 289.156,317.108 289.609,316.766 290.968 C 316.514 291.970,315.815 293.211,315.136 293.861 L 313.947 295.000 205.656 295.000 C 86.825 295.000,95.664 295.170,94.945 292.877 C 94.176 290.428,93.404 289.210,92.397 288.859 C 89.072 287.700,89.060 277.904,92.382 276.746 C 93.409 276.388,94.800 274.261,94.800 273.048 C 94.800 272.249,96.214 271.142,97.684 270.792 C 98.408 270.619,147.363 270.506,206.474 270.539 L 313.948 270.600 315.136 271.739 M0.000 373.800 L 0.000 400.000 200.000 400.000 L 400.000 400.000 400.000 373.800 L 400.000 347.600 398.600 347.600 C 397.830 347.600,397.199 347.645,397.198 347.700 C 397.138 350.287,394.888 356.800,394.055 356.800 C 393.307 356.800,390.800 359.793,390.800 360.686 C 390.800 361.774,389.271 363.339,387.289 364.280 C 386.383 364.710,385.647 365.515,385.067 366.713 C 384.395 368.100,383.839 368.644,382.600 369.124 C 381.720 369.465,380.910 369.864,380.800 370.012 C 380.690 370.160,380.195 370.494,379.700 370.754 C 379.205 371.015,378.800 371.467,378.800 371.760 C 378.800 372.633,375.749 374.477,373.705 374.839 C 370.823 375.350,368.800 376.074,368.800 376.594 C 368.800 377.450,366.959 378.804,364.567 379.707 L 362.200 380.600 200.400 380.600 L 38.600 380.600 35.800 379.675 C 33.645 378.964,32.770 378.438,32.000 377.393 C 30.862 375.847,29.845 375.352,27.000 374.959 C 24.648 374.634,23.592 374.029,21.323 371.708 C 20.401 370.764,18.847 369.649,17.870 369.230 C 16.028 368.441,14.800 367.123,14.800 365.936 C 14.800 365.519,13.979 364.811,12.700 364.125 C 10.959 363.193,10.419 362.623,9.540 360.800 C 8.958 359.590,8.328 358.472,8.140 358.316 C 5.112 355.791,4.930 355.461,3.160 349.300 C 2.711 347.737,2.564 347.600,1.336 347.600 L 0.000 347.600 0.000 373.800 " stroke="none" fill="#040404" fill-rule="evenodd"></path></g></svg>